<?xml version="1.0" encoding="UTF-8"?>
<svg xmlns="http://www.w3.org/2000/svg" viewBox="0 0 1080 1080">
  <defs>
    <style>
      .cls-1 {
        fill: #fff;
      }

      .cls-2 {
        fill: #99a799;
      }

      .cls-3 {
        fill: #7c7c7c;
      }

      .cls-4 {
        fill: #323a32;
      }

      .cls-5 {
        fill: #aec2a9;
      }

      .cls-6 {
        fill: #d3e4cd;
      }

      .cls-7 {
        fill: #1a1a1a;
      }

      .cls-8 {
        fill: #494949;
      }

      .cls-9 {
        fill: #1d1d1b;
        stroke: #323a32;
      }

      .cls-9, .cls-10 {
        stroke-miterlimit: 10;
      }

      .cls-10 {
        fill: #fef5ed;
        stroke: #4f493d;
        stroke-width: 7px;
      }

      .cls-11 {
        opacity: .27;
      }
    </style>
  </defs>
  <g id="base">
    <path class="cls-5" d="M472.22,814.92l-34.44,6.02h-30.85l-71.51-29.86-30.34-10.97-15.64-27.47-8.96-41.15,5.67-39.8-17.67,9.8s3.04-31.56,10.77-46.03,10.09-13.82,10.09-13.82l-7.65-12.72-8.17-40.16-9.19,7.02v-52.15l10.6-38.76,11.67-23.53-24.26-43.9s-6.46-34.35,12.59-37.4,52.41-5.44,52.41-5.44l23.73-35.12,48.95-51.73,73.91-48.71-14.57,24.56,35.26-16.11,71.45-18.62,83.74,3.29,15.75,4.3-24.04,12.31,32.67,4.7,61.93,22.42,57.02,41.87s90.56,97.88,85.21,190.06-6.55,101.11-6.55,101.11l-7.74,30.49-1.36,56.75-28.27,57.36-40.32,34.14-51.33,9.33-43.45,8.1-30.36,1.8-23.65-9.9-158.47,4.95-14.63,12.96Z"/>
  </g>
  <g id="sombras">
    <polygon class="cls-2" points="353.64 415.33 285 403 312 435 295.05 438.44 365 478 335.84 444.1 365.22 446.42 319 413 353.64 415.33"/>
    <path class="cls-2" d="M661.29,329.55s14.71-8.55,25.71-9.55l11-1-18.07,24.03,9.07,2.97-24,38,8.12-32.5-17.12,10.5,22.52-38.02-17.23,5.57Z"/>
    <path class="cls-2" d="M326.17,376.64l54.63,9.88s-17.6-11.52-2.2-47.02,46.39-71.3,46.39-71.3l-71.57,68.82-19.43,26.98-7.83,12.64Z"/>
    <g id="Capa_9" data-name="Capa 9">
      <path class="cls-2" d="M537,570.77c3.16-2.15-13.86-60.06-60.64-85.72-26.76-14.68-68.51-21.69-68.51-21.69h0c9.15,19.19,15.72,35.2,20.09,46.47,7.88,20.33,8.61,25.22,15.06,30.18,6.88,5.29,10.48,3.13,47,9,14.99,2.41,21.48,3.91,29,8,12.41,6.75,16.75,14.62,18,13.77Z"/>
      <path class="cls-2" d="M600.03,550.73s-13.57-35.64-4.8-67.68,41.36-55.8,41.36-55.8l-6.41,55.8-30.15,67.68Z"/>
    </g>
    <g id="Capa_7" data-name="Capa 7">
      <path class="cls-2" d="M393,698c-3.91,.49-16.95,1.64-30.08-6.44-3.82-2.35-12.77-8.64-17.92-20.56-.75-1.74-8.11-19.61,1-38,6.14-12.4,17.26-19.94,26-23,4.56-1.6,16.49-4.79,16.3-4.73h0c-6.46-.53-11.7,.07-15.3,.73-9.23,1.7-16.02,5.33-21.68,8.36-3.96,2.12-7.13,4.15-9.32,5.64l13.8-36.3-23.51,10.04,22.08-36.72-31.07,5.34s-.48-14.35,10.11-26.35l10.59-12,8.31-6.98s-6.71-10.36-29.01-23.69c-22.3-13.33-36.68-31.98-36.68-31.98l-16.42,40.92-9.44,75.11,12.77-15.02,5.18,37.89,8.84,21.4-18.96,48.66-.09,11.19,15.48-8.59s-5.85,49.76,.58,65.43c6.44,15.66,21.76,42.22,21.76,42.22l30.22-3.89-6.31-60.67,36.75,42.65c8.67-20.22,17.35-40.43,26.02-60.65Z"/>
    </g>
    <g id="Capa_6" data-name="Capa 6">
      <path class="cls-2" d="M781.82,758.25s56.8-60.35,46.49-127.3-15.87-86.69-15.87-86.69c0,0,29.84,36.53,36.69,52.13s9.61,22.14,9.61,22.14c0,0,19.86-127.67-24.95-172.6s-43.44-41.73-43.44-41.73l56.63,27.79s-38.97-102.78-74.48-129.39,81.55,62.26,97.02,143.32,9.05,131.45,9.05,131.45l-12.33,54.51-.25,41.03-13.25,51.69-28.94,40.6-29.7,22.47-15.11-1.84,2.82-27.59Z"/>
    </g>
    <g id="Capa_5" data-name="Capa 5">
      <path class="cls-2" d="M564.28,667.34l15.03-22.99,5.45-13.4s6.82,12.74,23.53,13.89,37.03-7.83,37.03-7.83c6.55-3.26,11.44-6.6,14.67-9.01,7.47-5.59,12.74-11.29,19.93-19.07,3.06-3.31,5.49-6.1,7.07-7.93l-14.47,29.95c-3.55,1.21-7.92,3.09-12.53,6.05-7.02,4.51-11.75,9.71-14.67,13.52-2.91,8.46-5.83,16.91-8.74,25.37l26.46-11.36-4.84,29.24,21.36-17.71-.42,28.21c3.91-7.2,14.52-24.37,35.86-35.27,13.63-6.96,26.28-8.62,34-9-8.6,12.42-20.13,32.31-27,59-8.61,33.44-5.84,61.79-3,78l-31.71,9.91-30.31-6.84-192.11,16.14-40.46,4.52-37.13-8s11.37-43.52,11.55-57.62-5.93-49.51-5.93-49.51c0,0,16.56-2.92,34.33,7.74l17.78,10.66-5.59-23.07,22.82,9.93-10.16-25.6,28.57,3.98s-12.08-21.23-23.86-26.23c-11.78-5.01-23.15-7.36-23.15-7.36,0,0,26.26-7.35,40.31,0,14.06,7.35,54.76,21.18,67.91,17.27,13.15-3.91,22.43-5.57,22.43-5.57Z"/>
    </g>
  </g>
  <g id="Capa_10" data-name="Capa 10">
    <path class="cls-6" d="M602.75,322.66s34.98-20.05,57.61-24.85,31.06-3.2,36.35,0,6.29,22.2,6.29,33.2,6.17-37.6,6.17-37.6l-19.88-10.18h-28.53l-24.17,12.27-17.97,12.43-15.86,14.74Z"/>
    <path class="cls-6" d="M262.36,399.82s14.29-16.82,42.47-15.82,104.97,15.82,104.97,15.82c0,0-47.99-25.59-69.39-25.2s-62.77,5.03-62.77,5.03l-15.28,20.17Z"/>
    <path class="cls-6" d="M847,432c-7.19-16.01-54.34-117.39-152.64-158.29-51.83-21.56-106.36-21.71-106.36-21.71-11.19-.03-33.3,.61-60.24,6.4-47.24,10.16-92.76,32.6-92.76,32.6h0l33.05-49-8.05,21s62.76-32.25,99.38-34.13c36.62-1.87,106.18,7.59,106.18,7.59l-24.68,12.31s39.78,4.79,58.45,11.51c22.11,7.96,76.14,25.85,113.44,79.22,24.2,34.63,31.72,70,34.22,92.5Z"/>
    <path class="cls-6" d="M565.82,635.47c-.9-.43-8.07-3.96-8.82-10.47-.77-6.61,5.62-11.44,9-14,7.39-5.59,20.21-9.79,31-4,1.1,.59,11.23,6.19,10.84,13.95-.38,7.51-9.93,15.41-15.56,14.52-9.28-1.47-18.12,3.95-18.12,3.95l-8.33-3.95Z"/>
  </g>
  <g id="Capa_13" data-name="Capa 13" class="cls-11">
    <path class="cls-6" d="M410,400c59.48-65.6,101.77-76.11,130-72.65,7.86-1.01,21.27-1.73,37,2.65,15.05,4.18,25.82,11.24,32,16,10.29,5.47,25.5,15.07,40,31,14.15,15.56,30,33.1,29,57-.87,20.78-14.51,35.97-22,43,4.61-28,0-50.69-11-55-13.35-5.24-35.24,16.93-46,37-7.6,14.17-11,29.81-8,102,.92,22.08,2.07,40.59,3,54-25.08-86.03-63.43-147.64-94-170-18.49-13.53-41-25-41-25-19.04-9.7-36.08-15.95-49-20Z"/>
  </g>
  <g id="tecla">
    <path class="cls-3" d="M579.31,864.82s-76.97-30.91-109.64-53.86-45.27-32.29-45.27-32.29l24.74-49.9,27.54-19.1,50.76-35.2,23.76-4.16,14.23-4.75,95.11,34.98,33.8,49.11s-56.74,84-115.05,115.18Z"/>
    <g id="Capa_15" data-name="Capa 15">
      <path class="cls-8" d="M579.31,864.82l-1.81-75.1s-56.48-17.3-87.49-35.01-40.86-25.94-40.86-25.94l-24.74,49.9s62.96,49.31,105.78,64.82,49.13,21.33,49.13,21.33Z"/>
      <path class="cls-8" d="M579.31,864.82l-1.81-75.1s52.14-41.97,64.82-61.35,18.24-27.83,18.24-27.83l33.8,49.11s-53.74,81-115.05,115.18Z"/>
    </g>
  </g>
  <g id="Capa_1" data-name="Capa 1">
    <path class="cls-4" d="M389.82,812.94c3.75-.61,7.26-.48,10.87-.11,3.42,.36,6.78,.69,9.98,1.98,3.21,1.21,6.38,3.29,9.81,3.97,6.94,1.48,13.83-2.01,20.54-2.73,8.39-1.87,16.87-2.49,25.48-2.1,1.8,.06,3.63,.15,5.57,.49l.31,.95c-8.27,7.5-19.73,10.85-30.76,10.1-5.54,.07-10.82-1.99-16.16-3-3.59-.7-7.11-.66-10.74,0-3.64,.57-7.38,.82-10.94-.28-5.36-1.6-10.48-4.09-14.3-8.32,0,0,.34-.94,.34-.94h0Z"/>
    <path class="cls-4" d="M657.21,799.63c2.98-.44,5.6-.31,8.36,.06,2.51,.32,4.93,.59,7.19,1.79,2.27,1.11,4.55,3.08,7.12,3.63,3.99,.92,7.8-1.1,11.33-2.61,3.52-1.24,6.9-2.65,10.47-3.62,3.69-.95,7.39-1.57,11.26-1.99,1.36-.18,2.77-.33,4.38-.31l.56,.83c-3.79,8.11-12.61,13.06-21.42,13.14-4.49,.49-8.51-1.2-12.76-1.98-5.64-1.45-11.37,2.54-16.93,.28-4.17-1.59-7.96-4.26-10.04-8.35,0,0,.48-.88,.48-.88h0Z"/>
    <path class="cls-4" d="M672.53,630.95c-17.44,8.56-30.55,26.02-32.78,45.4,0,0-4.42-3.4-4.42-3.4,11.17-5.23,25-11.36,36.29-16.46,0,0-5.22,9.87-5.22,9.87-4.28,8.11-5.8,17.71-4.25,26.74,0,0-6.48-2.39-6.48-2.39l10.72-8.81c5.41-4.41,11.68-9.47,17.19-13.83-.3,10.8-.69,22.47-1.17,33.26,0,0-.4,8.4-.4,8.4l-5.68-1.09c3.47-8.23,8.41-15.83,14.5-22.31,6-6.4,13.12-11.8,21.01-15.58-6.96,5.04-13.15,11.04-18.27,17.87-2.51,3.4-4.82,6.93-6.78,10.64-3.82,6.92-7.71,19.66-10.36,27.18-.17-9.59-.43-24.15-.53-33.61-.06-5.6-.08-11.21-.08-16.81l6.17,2.96c-8.09,6.96-18.29,15.42-26.5,22.3,0,0-1.2-6.82-1.2-6.82-.95-5.41-.9-10.96,0-16.35,.93-5.39,2.75-10.61,5.42-15.39l4.86,5.33-13.33,5.44c-6.1,2.47-12.6,5.05-18.75,7.45,1.05-6.97,2.66-14.29,5.89-20.54,6.85-13.88,19.27-25.07,34.17-29.44h0Z"/>
    <path class="cls-4" d="M433.63,655.65c15.53,.05,30.57,7.35,41.01,18.78,4.84,5.09,8.43,11.69,11.37,18.09-6.59-.6-13.53-1.27-20.09-1.95,0,0-14.32-1.52-14.32-1.52l3.18-6.47c3.89,3.85,7.1,8.36,9.49,13.28,2.36,4.92,3.95,10.24,4.54,15.71l.74,6.88c-9.81-4.34-21.94-9.62-31.66-14.06,0,0,5.1-4.55,5.1-4.55,1.56,5.38,3.09,10.77,4.6,16.17,2.52,9.08,6.34,23.25,8.83,32.44-4.67-6.58-11.88-17.62-17.51-23.23-8.9-9.15-19.94-16.11-31.99-20.42,13.01,2.19,25.31,8.27,35.3,16.91,3.38,2.91,6.53,6.12,9.34,9.62l-5.16,2.63-2.71-7.96c-3.47-10.24-7.09-21.33-10.37-31.62,6.53,2.66,13.92,5.77,20.36,8.51,0,0,12.75,5.48,12.75,5.48l-5.56,4.1c-1.03-9.1-5.15-17.9-11.52-24.5,0,0-7.76-8.03-7.76-8.03,12.27,1.77,27.24,3.81,39.43,5.72,0,0-3.3,4.5-3.3,4.5-7.53-17.99-24.98-31.12-44.11-34.49h0Z"/>
    <path class="cls-10" d="M382.66,824.81c-13.08-2.54-28.93-6.74-46.19-13.91-20.68-8.59-37.09-18.83-49.24-27.69,34.6-4.82,49.22-6.74,49.31-6.53,.16,.34-6.66-64.04-6.66-64.04l37.1,46.02,25.91-53.05c3.73,14.07,7.85,36.57,4.95,63.99-2.53,23.9-9.47,42.8-15.19,55.23Z"/>
    <path class="cls-10" d="M732.88,833.98c13.08-2.54,28.93-6.74,46.19-13.91,20.68-8.59,37.09-18.83,49.24-27.69-34.6-4.82-49.22-6.74-49.31-6.53-.16,.34,6.66-64.04,6.66-64.04l-37.1,46.02-25.91-53.05c-3.73,14.07-7.85,36.57-4.95,63.99,2.53,23.9,9.47,42.8,15.19,55.23Z"/>
    <path class="cls-4" d="M352.31,517.02c-14.33,11.59-24.82,28.75-25.76,47.35,0,0-4.84-3.12-4.84-3.12,10.89-6.62,23.37-10.56,36.1-11.53,0,0,13.06-.96,13.06-.96-5.4,4.56-13.9,11.02-18.42,16.32-7.53,8.43-13.2,18.64-15.8,29.66,0,0-7.07-4.54-7.07-4.54,8-6.09,17.63-9.81,27.59-10.9,0,0,10.08-1.11,10.08-1.11-3.62,4.49-8.96,10.78-11.93,15.65-5.15,8.23-8.75,17.44-10.32,27.03,0,0-4.76-2.77-4.76-2.77,13.9-9.42,31.1-16.57,48.08-12.84-19.11-.82-35.86,10.02-49.82,21.98,0,0,.55-7.09,.55-7.09,1.16-14.23,6.76-27.94,15.37-39.3,0,0,3.78,6.69,3.78,6.69-4.21,.6-8.33,1.77-12.25,3.39-6.98,2.61-14.82,9.43-20.73,13.88,1.74-7.34,3.57-17.56,6.76-24.33,5.13-11.75,13.35-22.07,23.5-29.87l2.86,7.47c-11.57,.52-23.07,3.53-33.41,8.84,0,0-5.55,2.84-5.55,2.84l.7-5.96c2.42-19.61,15.11-37.32,32.25-46.78h0Z"/>
    <path class="cls-4" d="M714.18,458.62c18.85,5.3,35.26,19.63,42.1,38.17,0,0,2.05,5.64,2.05,5.64l-6.05-1.5c-11.27-2.8-23.16-3.11-34.54-.96,0,0,1.08-7.92,1.08-7.92,11.66,5.27,22.02,13.44,29.7,23.71,4.63,5.83,8.81,15.44,12.15,22.14-6.82-3.01-15.93-7.81-23.36-8.77-4.18-.68-8.47-.88-12.7-.5l2.15-7.37c10.98,9.08,19.57,21.16,23.95,34.74,0,0,2.16,6.78,2.16,6.78-16.32-8.45-35.11-15.18-53.53-10.01,15.68-7.52,34.05-4.49,49.74,1.5,0,0-4,3.79-4,3.79-3.73-8.98-9.34-17.12-16.23-23.96-3.98-4.04-10.67-8.97-15.19-12.51,7.83-.97,17.18-2.46,24.99-1.07,4.94,.73,9.82,2.06,14.42,4.14l-5.85,6.03c-5.05-10.13-12.9-18.77-22.17-25.26-5.58-4.11-15.43-8.51-21.67-11.68,0,0,12.94-2.05,12.94-2.05,12.61-1.97,25.66-.99,37.78,2.97,0,0-4,4.15-4,4.15-5.17-17.89-19.31-32.19-35.91-40.2h0Z"/>
    <path class="cls-4" d="M326.17,376.64c3.29-9.52,7.38-18.78,12-27.76,1.35-2.93,3.96-5.53,5.75-8.21,34.59-46.49,80.81-84.23,133.32-108.74,0,0,17.68-8.3,17.68-8.3-1.06,1.41-12.23,16.78-12.92,17.7-1.27,2.12-2.77,3.79-4.52,5.48-6.45,6.57-13.78,13.84-20.53,20.12,2.45-5.09,5.98-12.09,8.62-17.14,1.48-2.83,2.97-5.64,4.48-8.44,1.08-2.17,2.26-4.13,3.88-5.95,0,0,1.41-1.9,1.41-1.9l6.15,7.49c-15.68,7.36-30.82,15.87-45.21,25.5-30.6,20.45-57.84,45.9-80.39,74.98-1.05,1.4-4.82,6.32-5.84,7.8-1.7,2.81-3.84,5.26-6.14,7.6-5.95,6.44-11.79,13.06-17.71,19.78h0Z"/>
    <path class="cls-4" d="M456.93,266.93c6.92-6.3,14.33-12.05,22.09-17.37,3.81-2.85,8.38-4.14,12.56-6.21,53.74-22.58,115.11-27.69,171.65-13.16,2.24,.68,4.63,.8,6.77,1.82l12.48,5.9c-8.14,2.22-18.74,5.33-26.79,7.46-4.55,1.16-10.61,2.82-15.11,3.82,2.14-1.5,4.31-2.92,6.46-4.38,6.02-4,13.51-8.73,19.63-12.57,0,0,.65,9.21,.65,9.21-2.3-.11-4.35-1.12-6.56-1.57l-6.53-1.66-13.23-2.61c-48.78-8.2-99.95-2.24-145.54,16.95-4.17,1.71-7.96,4.2-12.5,5.13-8.7,2.9-17.33,6.02-26.04,9.24h0Z"/>
    <path class="cls-4" d="M642.32,248.77c21.58-.32,43.35,2.79,64.49,8.74,6.45,2.12,12.78,5.09,19.02,7.77,53.22,24.04,94.09,66.69,121.95,117.45,31.94,58.92,41.74,128.11,34.13,194.25-3,16.03-6.87,31.86-12.16,47.28-1.78,5.11-3.64,10.18-5.69,15.16,2.15-10.52,3.96-21.1,5.26-31.74,1.29-10.58,2.19-21.23,2.65-31.85,2.42-21.03,3.01-42.29,1.67-63.41-3.06-50.02-17.53-99.66-44.71-141.94-23.95-37.73-56.58-70.54-96.63-90.88-3.21-1.73-7.3-3.68-10.61-5.22-3.38-1.48-7.42-3.3-10.9-4.58-2.46-.94-4.97-1.69-7.37-2.78-19.31-8.46-39.87-14.41-61.09-18.25h0Z"/>
    <path class="cls-4" d="M315.31,602.19c-8.26,6.35-14.79,13.5-20.79,21.48-4.12,3.93-7.56,8.69-10.47,13.57-7.87,13.13-11.47,28.68-10.56,43.95,0,0-7.42-4.08-7.42-4.08,6.79-3.76,22.08-12.25,28.73-15.94-4.15,12.33-8.43,25.86-9.09,38.87-1.32,18.27,2.21,36.63,9.48,53.42,2.43,9.09,5.88,18.08,9.9,26.64-3.65-3.25-7.04-6.82-10.17-10.58-3.17-3.78-6.09-7.82-8.75-12.06-1.1-1.55-1.48-3.41-2.22-5.12-2.4-6.23-4.52-13.06-5.87-19.61-4.45-20.66-3.2-42.5,3.32-62.58,0,0,7.18,5.91,7.18,5.91-4.89,2.72-19.98,11.08-24.62,13.66l-.46-7.93c-1.44-22.67,6.33-45.76,21.47-62.74,1.91-2.67,4.52-4.64,7.25-6.43,7.19-4.8,15-8.42,23.09-10.43h0Z"/>
    <path class="cls-4" d="M790.37,789.72c7.2-6.06,14.31-12.74,20.61-19.72,7.18-5.78,13.66-12.41,19.5-19.53,29.78-35.63,38.59-86.41,23.57-130.23,0,0-1.31-6.9-1.31-6.9-1.45-6.74-3.57-14.16-5.73-20.74,4.72,5.29,9.33,11.8,12.96,17.9,0,0,3.57,6.56,3.57,6.56,16.12,46.94,6.61,101.56-25.31,139.72-6.23,7.67-13.27,14.66-20.84,21.01-8.48,5.09-17.53,9.22-27.03,11.92h0Z"/>
    <path class="cls-4" d="M336.62,502.27c-10.71-4.22-20.93-9.71-30.43-16.24-4.32-3.81-8.45-7.85-12.44-12.01-9.98-10.4-18.84-21.88-26.35-34.18-7.9-12.88-15.23-28.52-9.69-44.05,5.86-15.54,23.39-21.63,38.28-23.94,20.03-3.45,40.77-2.87,60.58,1.66,10.9,3.95,21.3,9.24,30.69,15.93-11.02-3.02-21.94-5.29-32.9-6.18-18.54-4.15-37.93-4.84-56.68-1.56-17.51,2.7-35.87,10.45-31.23,31.46,2.13,10.17,8.17,19.66,13.9,28.38,9.2,13.62,20.12,26.11,32.51,36.9,7.32,8.4,15.44,16.34,23.75,23.82h0Z"/>
    <path class="cls-4" d="M595.23,332.03c15.24-26,42.95-44.82,72.66-50.95,12.85-2.39,28.22-4.91,39.62,3.3,8.12,6.02,8.27,16.04,6.11,24.82-6.43,29.11-13.29,57.98-21.89,86.58,3.2-29.65,8.14-58.98,13.52-88.24,1.8-8.78,1.3-15.81-8.39-18.55-8.8-2.48-18.41-.94-27.35,.45-28.79,5.12-54.74,20.33-74.29,42.6h0Z"/>
    <path class="cls-4" d="M664.39,386.51c.59-8.58,1.86-16.96,3.28-25.39,.49-2.79,.99-5.57,1.54-8.35l4.83,4.37c-5.54,2.4-11.13,4.68-16.76,6.85,0,0-12.26,4.68-12.26,4.68l7.13-11.24c7.77-12.09,16.12-24,24.91-35.38l3.15,5.38c-9.74,.08-18.97,3.02-27.46,8.03,6.47-8.16,16.58-13.41,26.9-14.92,0,0,6.93-1.06,6.93-1.06-6.61,11.42-13.65,23.03-21.03,33.94-2.04,2.97-4.04,5.97-6.14,8.91l-5.13-6.56c5.71-1.96,11.45-3.81,17.23-5.54,0,0,6.84-1.99,6.84-1.99-4.05,12.95-8.31,25.91-13.97,38.28h0Z"/>
    <path class="cls-4" d="M366.71,480.49c-11.47-10.97-22.37-22.51-32.88-34.4,0,0-4.46-5.02-4.46-5.02l6.97-.71c9.96-1.03,20.13-.39,29.9,1.83,0,0-3.55,7.75-3.55,7.75-4.13-2.86-8.25-5.73-12.34-8.65-16.11-11.34-32.41-23.77-48.07-35.79,22.46,3.28,45.45,6.49,67.56,11.54-18.04,.22-36.05-.7-54.04-1.9,0,0,2.6-6.85,2.6-6.85,16.74,11.11,33.18,22.66,49.34,34.59l17.8,13.16c-5.17-1.24-23.2-6.04-28.09-6.91-6.82-1.27-13.73-1.86-20.69-1.74l2.52-5.73c2.36,3.18,4.71,6.36,7.03,9.57,7.02,9.6,13.95,19.25,20.39,29.27h0Z"/>
    <path class="cls-4" d="M286.62,461.35c-1.45,4.84-2.89,9.63-4.21,14.45-.6,2.41-1.18,4.81-1.8,7.16-.41,2.44-1.06,4.72-2.23,6.89-10.26,26.96-13.52,56.66-9.08,85.16l-9.37-1.55c4.99-9.51,15.21-29.02,20.23-38.59,0,0-1.46,23.37-1.46,23.37-.69,12.45,.36,25.19,3.95,37.17,1.01,8.84,2.46,17.54,4.89,26.23-5.94-6.91-11.2-15.09-14.77-23.55-3.31-13.2-4.98-26.84-4.06-40.47,0,0,9.42,2.63,9.42,2.63-4.01,7.63-12.43,23.72-16.39,31.27,0,0-2.33-14.97-2.33-14.97-4.72-30.28-1.24-61.64,9.6-90.25,1.43-4.96,4.9-9.01,7.72-13.24,3.09-4.1,6.35-8.03,9.89-11.71h0Z"/>
    <path class="cls-9" d="M630.65,439.96c-5.37,3.68-13.53,10.33-20.15,21.06-10.77,17.44-10.75,34.77-10.36,41.71,3.29,1.82,10.42,5.14,19.45,4.23,19.1-1.92,28.12-20.89,28.63-22.01,.77-2.74,5.08-19.17-4.75-33.51-4.16-6.07-9.35-9.57-12.83-11.48Z"/>
    <path class="cls-9" d="M434.46,483.05c7.31,.34,19.05,1.88,31.73,8.22,20.62,10.31,30.85,26.89,34.58,33.75-2.06,3.69-6.93,11.08-16.09,15.55-19.4,9.47-39.26-3.34-40.4-4.11-2.36-2.17-16.2-15.33-15.29-34.85,.39-8.26,3.28-14.69,5.47-18.56Z"/>
    <path class="cls-4" d="M557.97,629.32c7.37,5.5,17.89,7.6,24.07-.55,0,0,1.91-2.42,1.91-2.42l2.68,1.64c7.38,4.74,15.56,1.37,19.85-5.87,.67-1.11,1.25-2.31,1.83-3.59,.43,2.76,.03,5.7-1.11,8.45-2.37,5.8-8.58,10.11-15.08,9.8-3.33-.12-6.44-1.16-9.19-2.87l4.59-.78c-8.19,10.59-24.19,8.24-29.53-3.82h0Z"/>
    <path class="cls-4" d="M518.1,671.8c16.35,.05,38.23,.32,49.37-13.43,6.02-8.04,9.9-17.94,13.56-27.32,.08-.17,.27-.76,.34-.94,.01-.04,.05-.16,.02-.05-.08,.54-.14-.2-.12,1.47,5.37,6.57,7.48-.79,6.5,1.21,.14-.29,.14-.27,.23-.5,0,0-.69-3.67-.69-3.67,8.21,8.87,19.75,14.51,31.92,14.86,12.53,.21,24.8-4.84,34.83-12.48-6.33,7.46-15.18,13.25-24.69,15.98-16.73,5.09-35.39-.89-47.13-13.59,0,0-.69-3.67-.69-3.67-.02,.04,.14-.28,.16-.3-.99,2.02,1.11-5.33,6.48,1.25,.04,1.58-.1,1.12-.1,1.39-.07,.22-.18,.56-.26,.78-.43,1.19-1.26,3.43-1.74,4.63-3.66,8.87-7.49,17.53-13.75,25.04-13.51,14.95-36.46,13.33-54.23,9.35h0Z"/>
    <path class="cls-4" d="M473.94,587.4c-19.03-4.82-38.73-6.08-58.22-3.76,19.06-5.11,39.98-3.75,58.22,3.76h0Z"/>
    <path class="cls-4" d="M486.85,603.61c-22.83-1.62-46.07,2.97-66.13,14.05-12.05,6.62-22.8,15.35-32,25.62,11.09-14.78,26.42-26.43,43.61-33.31,17.15-6.91,36.27-9.21,54.52-6.35h0Z"/>
    <path class="cls-4" d="M489.29,627.86c-23.08,5.27-44.01,17.59-59.82,35.15,13.65-19.46,36.19-32.69,59.82-35.15h0Z"/>
    <path class="cls-4" d="M499.26,635.47c-5,9.4-8.09,19.5-9.23,30.09-1.71-10.65,1.86-22.22,9.23-30.09h0Z"/>
    <path class="cls-4" d="M625.09,544.26c9.46-14.47,24.07-25.74,40.48-31.18-15.22,7.99-28.87,18.49-40.48,31.18h0Z"/>
    <path class="cls-4" d="M623.62,562.36c17.76-16.68,42.66-25.54,66.97-23.93,8.11,.48,16.13,2.13,23.73,4.81-12.69-3.15-25.8-4.1-38.74-2.56-18.92,2.27-36.88,10.05-51.96,21.68h0Z"/>
    <path class="cls-4" d="M633.71,581.17c18.3-9.93,41.28-11.34,60.65-3.69-20.08-4.86-41.31-3.58-60.65,3.69h0Z"/>
    <path class="cls-4" d="M630.18,591.57c9.26,1.94,17.6,8.69,21.41,17.36-6.14-7.03-13.26-12.81-21.41-17.36h0Z"/>
    <path class="cls-7" d="M449.23,729.11c-6.44,14.78-16.39,36.12-22.93,50.5,0,0-.58-2.6-.58-2.6,14.73,11.16,29.89,21.7,45.55,31.46,34.46,21.45,70.81,39.91,108.64,54.67,0,0-1.58,.18-1.58,.18,11.59-7.13,22.78-14.95,33.42-23.46,31.99-25.44,58.92-56.96,80.38-91.65,0,0,.04,2.94,.04,2.94-5.78-8.09-11.54-16.18-17.25-24.31l-17.11-24.41,5.62-.23c-20.82,37.22-50.43,69.45-85.93,93.12-46.16-14.3-90.28-36.27-128.28-66.21h0Zm-.17-.68l2.03,1.22,2,1.28c18.68,12.11,38.24,22.95,58.41,32.36,21.49,9.96,43.69,18.36,66.44,24.89,0,0-2.97,.47-2.97,.47,34.96-24.64,64.36-57.09,85.38-94.34,10.85,16.31,25.57,37.58,36.18,53.85,0,0,1,1.51,1,1.51l-.96,1.42c-30.99,45.74-71.53,84.52-116.99,115.72-42.83-13.98-83.71-33.96-120.79-59.57-12.81-8.73-25.14-18.14-37.06-28.02,7.75-15.25,19.21-35.55,27.33-50.77h0Z"/>
    <path class="cls-7" d="M448.95,728.48c11.82-10.74,24.56-20.25,37.56-29.45,12.95-9.21,27.41-16.18,40.35-25.43,0,0,.24-.17,.24-.17l.3-.02c7.75-.48,15.47-1.35,23.17-2.34l-.65,.15c3.89-1.91,9.39-4.71,13.26-6.52,0,0,.86-.42,.86-.42l1.18,.35c7.11,2.06,17.15,5.37,24.31,7.61,16.21,5.1,32.07,11.16,47.79,17.6,7.86,3.25,15.67,6.62,23.36,10.37l-.23,.66c-28.99-6.48-57.47-15.67-85.2-26.28-3.98-1.49-7.95-2.99-11.9-4.55l2.04-.07c-4.18,1.53-10.12,3.58-14.38,5.05-7.84-.05-15.67,.03-23.49,.49,0,0,.54-.19,.54-.19-6.57,4.48-12.83,9.38-18.99,14.42-12.21,10.25-25.4,19.09-38.94,27.46-6.78,4.16-13.63,8.21-20.78,11.84l-.4-.58h0Z"/>
    <path class="cls-7" d="M577.85,791.07c1.3,11.57,2.49,24.27,3.35,35.92,.22,2.99,.58,5.99,.89,8.98,.62,6.01,.25,12.02-.54,18.01-.43,3.01-.97,6.02-1.9,9.05l-.7,.02c-2.89-8.7-4.12-17.79-3.79-26.91,.35-5.22,.56-12.72,.68-18.02,.34-8.73,.75-18.36,1.3-27.03,0,0,.7-.02,.7-.02h0Z"/>
    <g>
      <path class="cls-1" d="M522.38,692.54l10.37,4.45c7.47,3.21,11.22,6.44,7.85,9.15-1.91,1.53-5.67,2.01-10.6,.61l-.12,.09c4.91,2.65,6.51,5.21,3.87,7.33-3.78,3.03-11.21,2.12-19.4-1.4l-11.2-4.81,19.24-15.42Zm-6.65,18.29c6.24,2.68,10.95,3.37,13.56,1.28,2.38-1.9-.12-4.16-6.53-6.92l-5.91-2.54-7.04,5.64,5.91,2.54Zm8.14-7.69c6.24,2.68,9.81,2.91,11.95,1.2,2.08-1.67-.05-3.52-5.68-5.94l-5.18-2.23-6.04,4.84,4.96,2.13Z"/>
      <path class="cls-1" d="M536.54,719.48l3.92-.26c1.17,1.94,3.43,4.18,8,6.14,4.85,2.08,9.79,2.58,11.88,.91,2.23-1.79,.16-4.52-9.15-8.51l1.85-1.48c8.42,3.61,13.18,3.78,15.14,2.21,1.79-1.43-.02-3.62-4.31-5.46-3.34-1.44-7.2-2.12-10.63-2.25l-.93-2.28c4.3,.19,9.15,1.04,13.72,3,6.69,2.87,10.03,6.44,7.01,8.86-2.26,1.81-6.87,1.6-12.04,.32l-.12,.09c4.21,2.46,6.64,5.52,4.06,7.59-3.31,2.66-11.13,1.79-18.22-1.25-6.13-2.63-8.94-5.39-10.18-7.62Z"/>
      <path class="cls-1" d="M588.6,720.97l9.03,3.88c10.98,4.72,13.52,10.03,7.42,14.91-6.13,4.91-15.67,5.22-26.43,.6l-9.25-3.97,19.24-15.42Zm-8.52,17.53c8.31,3.57,15.25,3.08,20.11-.82,4.84-3.88,3.38-7.79-4.92-11.35l-4.01-1.72-15.19,12.17,4.01,1.72Z"/>
    </g>
  </g>
  <g id="ojitos">
    <rect class="cls-1" x="441" y="491" width="8" height="8" rx="4" ry="4"/>
    <rect class="cls-1" x="443" y="501" width="3" height="3" rx="1.5" ry="1.5"/>
    <g id="Capa_11" data-name="Capa 11">
      <rect class="cls-1" x="624" y="453" width="8" height="8" rx="4" ry="4"/>
      <rect class="cls-1" x="621" y="461" width="3" height="3" rx="1.5" ry="1.5"/>
    </g>
  </g>
</svg>